<?xml version="1.0" encoding="UTF-8" standalone="no"?>
<svg
   xmlns:dc="http://purl.org/dc/elements/1.1/"
   xmlns:cc="http://creativecommons.org/ns#"
   xmlns:rdf="http://www.w3.org/1999/02/22-rdf-syntax-ns#"
   xmlns:svg="http://www.w3.org/2000/svg"
   xmlns="http://www.w3.org/2000/svg"
   viewBox="0 0 500 500"
   height="500"
   width="500"
   xml:space="preserve"
   version="1.1"
   id="svg2"><metadata
     id="metadata8"><rdf:RDF><cc:Work
         rdf:about=""><dc:format>image/svg+xml</dc:format><dc:type
           rdf:resource="http://purl.org/dc/dcmitype/StillImage" /></cc:Work></rdf:RDF></metadata><defs
     id="defs6" /><g
     transform="matrix(1.25,0,0,-1.25,0,500)"
     id="g10"><g
       transform="scale(0.1,0.1)"
       id="g12"><path
         id="path14"
         style="fill:#dd1e26;fill-opacity:1;fill-rule:nonzero;stroke:none"
         d="M 4000,2000 C 4000,895.43 3104.57,0 2000,0 895.43,0 0,895.43 0,2000 c 0,1104.57 895.43,2000 2000,2000 1104.57,0 2000,-895.43 2000,-2000" /><path
         id="path16"
         style="fill:#ffffff;fill-opacity:1;fill-rule:nonzero;stroke:none"
         d="m 2547.72,774.398 -1750.49,0 c -66,0 -120,54 -120,120 l 0,2328.242 c 0,66 54,120 120,120 l 1750.49,0 c 66,0 120,-54 120,-120 l 0,-2328.242 c 0,-66 -54,-120 -120,-120" /><path
         id="path18"
         style="fill:none;stroke:#100f0d;stroke-width:60;stroke-linecap:butt;stroke-linejoin:miter;stroke-miterlimit:10;stroke-dasharray:none;stroke-opacity:1"
         d="m 2547.72,774.398 -1750.49,0 c -66,0 -120,54 -120,120 l 0,2328.242 c 0,66 54,120 120,120 l 1750.49,0 c 66,0 120,-54 120,-120 l 0,-2328.242 c 0,-66 -54,-120 -120,-120 z" /><path
         id="path20"
         style="fill:#ffffff;fill-opacity:1;fill-rule:nonzero;stroke:none"
         d="m 2048.97,3559.16 -198.52,0 c -15.55,75.52 -82.41,132.31 -162.54,132.31 -80.12,0 -146.98,-56.79 -162.53,-132.31 l -198.52,0 c -44.41,0 -80.74,-36.33 -80.74,-80.73 l 0,-273.6 c 0,-44.4 36.33,-80.73 80.74,-80.73 l 722.11,0 c 44.4,0 80.73,36.33 80.73,80.73 l 0,273.6 c 0,44.4 -36.33,80.73 -80.73,80.73" /><path
         id="path22"
         style="fill:none;stroke:#100f0d;stroke-width:60;stroke-linecap:butt;stroke-linejoin:miter;stroke-miterlimit:10;stroke-dasharray:none;stroke-opacity:1"
         d="m 2048.97,3559.16 -198.52,0 c -15.55,75.52 -82.41,132.31 -162.54,132.31 -80.12,0 -146.98,-56.79 -162.53,-132.31 l -198.52,0 c -44.41,0 -80.74,-36.33 -80.74,-80.73 l 0,-273.6 c 0,-44.4 36.33,-80.73 80.74,-80.73 l 722.11,0 c 44.4,0 80.73,36.33 80.73,80.73 l 0,273.6 c 0,44.4 -36.33,80.73 -80.73,80.73 z" /><path
         id="path24"
         style="fill:none;stroke:#100f0d;stroke-width:60;stroke-linecap:butt;stroke-linejoin:miter;stroke-miterlimit:10;stroke-dasharray:none;stroke-opacity:1"
         d="m 1025.21,2760.1 1305.34,0" /><path
         id="path26"
         style="fill:none;stroke:#100f0d;stroke-width:60;stroke-linecap:butt;stroke-linejoin:miter;stroke-miterlimit:10;stroke-dasharray:none;stroke-opacity:1"
         d="m 1025.21,2228.52 838.73,0" /><path
         id="path28"
         style="fill:none;stroke:#100f0d;stroke-width:60;stroke-linecap:butt;stroke-linejoin:miter;stroke-miterlimit:10;stroke-dasharray:none;stroke-opacity:1"
         d="m 1025.21,1696.93 478.43,0" /><path
         id="path30"
         style="fill:#e24861;fill-opacity:1;fill-rule:nonzero;stroke:none"
         d="m 3489.91,1826.09 -0.01,0 c -186.53,186.54 -491.77,186.54 -678.31,0 l -143.87,-143.87 -143.88,143.87 c -186.53,186.54 -491.77,186.54 -678.31,0 l 0,0 c -186.53,-186.53 -186.53,-491.77 0,-678.31 l 143.88,-143.87 678.31,-678.308 678.31,678.308 143.88,143.87 c 186.53,186.54 186.53,491.78 0,678.31" /><path
         id="path32"
         style="fill:none;stroke:#100f0d;stroke-width:60;stroke-linecap:butt;stroke-linejoin:miter;stroke-miterlimit:10;stroke-dasharray:none;stroke-opacity:1"
         d="m 3489.91,1826.09 -0.01,0 c -186.53,186.54 -491.77,186.54 -678.31,0 l -143.87,-143.87 -143.88,143.87 c -186.53,186.54 -491.77,186.54 -678.31,0 l 0,0 c -186.53,-186.53 -186.53,-491.77 0,-678.31 l 143.88,-143.87 678.31,-678.308 678.31,678.308 143.88,143.87 c 186.53,186.54 186.53,491.78 0,678.31 z" /><path
         id="path34"
         style="fill:none;stroke:#100f0d;stroke-width:40;stroke-linecap:round;stroke-linejoin:miter;stroke-miterlimit:10;stroke-dasharray:none;stroke-opacity:1"
         d="m 1852.5,1133.33 224.17,0 30,106.67 50,-106.67 86.66,580 138.31,-729.221 55.03,255.891 40,-92.02 191.05,0" /><path
         id="path36"
         style="fill:none;stroke:#100f0d;stroke-width:40;stroke-linecap:round;stroke-linejoin:miter;stroke-miterlimit:10;stroke-dasharray:none;stroke-opacity:1"
         d="m 2667.72,1148.12 224.17,0 30,96.39 50,-96.39 86.66,524.11 125.62,-670.35 67.72,242.63 40,-83.15 191.05,0" /></g></g></svg>